<svg xmlns="http://www.w3.org/2000/svg" viewBox="0 0 512 512" role="img" aria-labelledby="title desc">
  <title id="title">SwiftDrop Buy Me a Coffee support mark</title>
  <desc id="desc">A yellow rounded-square support mark with a coffee cup, code brackets, heart, and SwiftDrop arrow.</desc>
  <defs>
    <linearGradient id="bg" x1="0" y1="0" x2="1" y2="1">
      <stop offset="0" stop-color="#FFE66D"/>
      <stop offset="1" stop-color="#FFDD00"/>
    </linearGradient>
    <linearGradient id="cup" x1="0" y1="0" x2="0" y2="1">
      <stop offset="0" stop-color="#FFFFFF"/>
      <stop offset="1" stop-color="#F8FAFC"/>
    </linearGradient>
  </defs>
  <rect x="20" y="20" width="472" height="472" rx="112" fill="url(#bg)"/>
  <circle cx="256" cy="256" r="176" fill="#111827" opacity="0.08"/>
  <path d="M154 169h204l-18 185c-3 31-29 54-60 54h-48c-31 0-57-23-60-54z" fill="url(#cup)" stroke="#111827" stroke-width="18" stroke-linejoin="round"/>
  <path d="M358 208h24c39 0 70 31 70 70s-31 70-70 70h-34" fill="none" stroke="#111827" stroke-width="18" stroke-linecap="round"/>
  <path d="M182 145c25-32 123-32 148 0" fill="none" stroke="#111827" stroke-width="18" stroke-linecap="round"/>
  <path d="M216 244l-35 31 35 31M296 244l35 31-35 31M276 229l-40 92" fill="none" stroke="#4F46E5" stroke-width="17" stroke-linecap="round" stroke-linejoin="round"/>
  <path d="M116 117c26-42 59-58 99-65" fill="none" stroke="#4F46E5" stroke-width="18" stroke-linecap="round"/>
  <path d="M203 39l28 10-22 20" fill="none" stroke="#4F46E5" stroke-width="18" stroke-linecap="round" stroke-linejoin="round"/>
  <path d="M369 103c12-19 40-19 52 0 12-19 40-19 52 0 0 33-52 63-52 63s-52-30-52-63z" fill="#EF4444" stroke="#111827" stroke-width="8" stroke-linejoin="round"/>
  <circle cx="109" cy="383" r="14" fill="#4F46E5"/>
  <circle cx="398" cy="403" r="12" fill="#4F46E5"/>
</svg>
